<svg xmlns="http://www.w3.org/2000/svg" version="1.1" xmlns:xlink="http://www.w3.org/1999/xlink" width="512" height="512" x="0" y="0" viewBox="0 0 60 60" style="enable-background:new 0 0 512 512" xml:space="preserve" class=""><g><path d="M19.325 15.851a.547.547 0 0 0 0-.771l-8.753-8.741a.538.538 0 0 0-.76-.001L6.921 9.221l9.513 9.513zM53.661 50.188a.543.543 0 0 0 0-.763l-8.741-8.751c-.137-.138-.3-.158-.385-.158s-.248.021-.385.158l-2.883 2.891 9.513 9.513 2.882-2.89zM15.585 44.415c8.175 8.175 15.689 12.707 22.333 13.471 5.37.619 9.09-1.373 11.422-3.418l-9.715-9.715c-1.872.597-6.974.837-16.095-8.284s-8.881-14.224-8.284-16.095L5.532 10.66c-2.044 2.331-4.035 6.051-3.418 11.422.764 6.644 5.296 14.158 13.471 22.333zM57 26a1 1 0 0 0 1-1V3a1 1 0 0 0-1-1H29a1 1 0 0 0-1 1v22a1 1 0 0 0 1 1h16.82c.288 0 .562.125.753.342l5.687 6.503.748-5.969A1 1 0 0 1 54 26zM49.8 8.6l-9 12a.996.996 0 0 1-.8.4.995.995 0 0 1-.707-.293l-3-3a.999.999 0 1 1 1.414-1.414l2.185 2.185 8.309-11.077A1 1 0 0 1 49.8 8.6z" fill="#008000" opacity="1" data-original="#000000" class=""></path></g></svg>