<svg xmlns="http://www.w3.org/2000/svg" version="1.1" xmlns:xlink="http://www.w3.org/1999/xlink" width="512" height="512" x="0" y="0" viewBox="0 0 512 512" style="enable-background:new 0 0 512 512" xml:space="preserve" class=""><g><g fill-rule="evenodd" clip-rule="evenodd"><path fill="#008000" d="M52.3 67.35c1.19-1.26 2.41-2.5 3.65-3.74 6.19-6.19 12.63-11.82 19.21-16.88 9.36-7.19 20.22-9.75 31.81-7.49s20.69 8.7 26.67 18.88l48.41 82.46a28.305 28.305 0 0 1-7.6 37.2l-20.38 15.07c-12.2 9.02-15.15 26.02-6.7 38.62 13.69 20.43 35.53 46.47 62.05 72.98 26.52 26.52 52.56 48.37 72.99 62.05 12.6 8.44 29.6 5.49 38.62-6.71l15.22-20.58a28.303 28.303 0 0 1 37.2-7.6l82.46 48.41c10.17 5.97 16.61 15.06 18.88 26.63 2.27 11.58-.27 22.42-7.44 31.79-5.11 6.67-10.81 13.2-17.08 19.47a212.86 212.86 0 0 1-3.74 3.65c-29.63 28.13-70.4 35.93-108.33 20.74-57.66-23.1-122.04-66.38-181.15-125.49C97.94 297.72 54.66 233.35 31.56 175.68c-15.19-37.92-7.38-78.7 20.74-108.33z" opacity="1" data-original="#4adf38"></path><circle cx="391.54" cy="122.34" r="102.39" fill="#008000" opacity="1" data-original="#2fc2e2" class=""></circle><path fill="#ffffff" d="m365.84 160.26-23-23c-15.06-15.06 8.77-38.9 23.83-23.83l10.48 10.48 37.87-37.87c15.06-15.06 38.9 8.77 23.83 23.83l-50.38 50.38c-6.23 6.24-16.39 6.24-22.63.01z" opacity="1" data-original="#ffffff" class=""></path><path d="M344.41 123.85c1.11-4.15 4.78-7.82 8.93-8.94 3.36-.9 6.43.02 9.13 2.72l10.48 10.48c2.35 2.34 6.15 2.35 8.49 0l37.86-37.86c6.86-6.86 13.95-.17 14.73.61.79.79 7.48 7.88.62 14.73l-50.38 50.39c-3.9 3.9-10.25 3.9-14.15 0l-23-23c-2.7-2.7-3.61-5.78-2.71-9.13zm17.23 40.61c4.29 4.29 9.92 6.44 15.56 6.44 5.63 0 11.26-2.15 15.55-6.44l50.39-50.38c10.2-10.2 7.41-23.67-.62-31.7s-21.5-10.82-31.7-.62l-33.62 33.62-6.24-6.23c-5.7-5.71-13.26-7.83-20.73-5.83-8.21 2.21-15.21 9.2-17.41 17.42-2 7.47.12 15.02 5.82 20.72zM391.58 25.9c-53.15 0-96.4 43.24-96.4 96.39 0 53.16 43.25 96.4 96.4 96.4s96.39-43.24 96.39-96.4c0-53.15-43.24-96.39-96.39-96.39zm0 204.79c59.77 0 108.39-48.63 108.39-108.4 0-59.76-48.62-108.39-108.39-108.39s-108.4 48.63-108.4 108.39c0 59.77 48.63 108.4 108.4 108.4zm71.04 204.08c6.12-8.01 8.25-17.09 6.31-26.99s-7.33-17.5-16.02-22.61l-82.46-48.41a22.35 22.35 0 0 0-29.34 5.99l-15.22 20.58c-10.94 14.8-31.5 18.37-46.79 8.13-21.68-14.53-47.92-36.83-73.89-62.8-25.96-25.96-48.26-52.2-62.79-73.88-10.24-15.3-6.68-35.85 8.12-46.79l20.38-15.07a22.35 22.35 0 0 0 5.99-29.34L128.5 61.12c-5.12-8.71-12.73-14.1-22.64-16.03-2.36-.46-4.67-.69-6.93-.69-7.24 0-13.97 2.36-20.08 7.05a192.057 192.057 0 0 0-18.62 16.36c-1.2 1.2-2.39 2.42-3.54 3.63-26.58 28.01-33.88 66.13-19.52 101.97 23.69 59.14 67.79 122.76 124.16 179.13s119.98 100.47 179.13 124.17c35.85 14.35 73.96 7.06 101.97-19.53 1.2-1.14 2.42-2.33 3.63-3.54 5.97-5.97 11.54-12.32 16.56-18.87zm-3.64-59.95-82.46-48.41a34.302 34.302 0 0 0-45.05 9.21l-15.23 20.58c-7.12 9.63-20.5 11.96-30.46 5.29-21.05-14.1-46.65-35.88-72.08-61.31s-47.2-51.03-61.31-72.08c-6.67-9.96-4.35-23.34 5.29-30.46l20.37-15.07c14.18-10.49 18.14-29.86 9.21-45.06l-48.41-82.46c-6.84-11.64-17.45-19.16-30.7-21.74-13.24-2.58-25.9.4-36.6 8.62a202.677 202.677 0 0 0-19.81 17.4c-1.27 1.27-2.53 2.57-3.75 3.85-29.9 31.5-38.12 74.37-21.96 114.69 24.28 60.62 69.32 125.66 126.81 183.16C210.33 418.52 275.38 463.56 336 487.84c13.62 5.46 27.52 8.14 41.19 8.14 26.79-.01 52.64-10.29 73.5-30.1 1.27-1.21 2.57-2.47 3.85-3.75 6.35-6.34 12.27-13.1 17.6-20.07 8.2-10.7 11.16-23.35 8.57-36.59-2.59-13.22-10.11-23.82-21.73-30.65z" fill="#008000" opacity="1" data-original="#000000" class=""></path></g></g></svg>