<svg xmlns="http://www.w3.org/2000/svg" version="1.1" xmlns:xlink="http://www.w3.org/1999/xlink" width="512" height="512" x="0" y="0" viewBox="0 0 1024 1024" style="enable-background:new 0 0 512 512" xml:space="preserve" class=""><g><path d="M920.9 814.9 818.6 918.6c-5.6 8.2-26.4 31.6-85 31.6-18.9 0-41.7-2.4-69.2-8.6l-.5-.1c-4.1-1.1-102.5-27.6-223.2-110.6-42.3-29.1-82.2-61.6-119.1-97.1L132.3 922.9 104 894.6l189.3-189.3a943.51 943.51 0 0 1-42.2-47.3C182.6 575.7 127.7 480.9 88 376.3c-1.7-3.8-10.6-24.9-13.3-53.4-4-41.5 7.1-79.3 32-109.2l.4-.5L222.6 96.8l.6-.5c2.7-2.3 27.6-21.8 54.9-15.1 16.5 4 29.3 16.3 38 36.5l83.6 159.1c2.9 3.8 9.9 14.2 12.8 28.7 3.4 16.6 2.1 41.8-22.8 67.6l-.6.6-36.7 33.9-.9.5c-6.5 4.6-3.2 10.5-2.1 12.4l.3.6c.3.7 22.1 42.9 64.3 95.1 9.2 11.4 19.8 23.8 31.9 36.8l445.9-445.9 28.3 28.3-446.2 446c34.8 33.2 78 67.1 129 93.8 3.3.3 13.4-.1 25.7-12.4l.2-.2 33.1-31.8c2.9-3.8 10.7-12.5 24.2-18.1 14.6-6 39.1-9.6 73 7.8l.8.4 157.4 92.3c5.7 2.6 27.5 14 32.2 38 3.7 20.1-5.8 41.5-28.6 63.7z" fill="#ffc107" opacity="1" data-original="#000000" class=""></path></g></svg>