<svg xmlns="http://www.w3.org/2000/svg" version="1.1" xmlns:xlink="http://www.w3.org/1999/xlink" width="512" height="512" x="0" y="0" viewBox="0 0 512 512" style="enable-background:new 0 0 512 512" xml:space="preserve" class=""><g><path fill="#67308f" d="M418.6 41.5v429c0 22.9-18.6 41.5-41.5 41.5H134.9c-22.9 0-41.5-18.6-41.5-41.5v-429C93.4 18.6 112 0 134.9 0h242.2c22.9 0 41.5 18.6 41.5 41.5z" opacity="1" data-original="#003870" class=""></path><path fill="#67308f" d="M134.9 13.8h242.2c15.3 0 27.7 12.4 27.7 27.7v429c0 15.3-12.4 27.7-27.7 27.7H134.9c-15.3 0-27.7-12.4-27.7-27.7v-429c0-15.3 12.4-27.7 27.7-27.7z" opacity="1" data-original="#b8f2ff" class=""></path><path fill="#67308f" d="M390.9 48.4v359.8c0 11.5-9.3 20.8-20.8 20.8H141.8c-11.5 0-20.8-9.3-20.8-20.8V48.4c0-11.5 9.3-20.8 20.8-20.8h38l14.7 24.5c3.8 6.2 10.5 10.1 17.8 10.1h87.2c7.3 0 14.1-3.8 17.8-10.1L332 27.6h38.1c11.5.1 20.8 9.4 20.8 20.8z" opacity="1" data-original="#003870" class=""></path><path fill="#ffffff" d="M141.8 415.1c-3.8 0-6.9-3.1-6.9-6.9V48.4c0-3.8 3.1-6.9 6.9-6.9H172l10.7 17.8c6.2 10.4 17.6 16.8 29.7 16.8h87.2c12.1 0 23.5-6.4 29.7-16.8L340 41.5h30.2c3.8 0 6.9 3.1 6.9 6.9v359.8c0 3.8-3.1 6.9-6.9 6.9z" opacity="1" data-original="#36a4ff" class=""></path><path fill="#67308f" d="M287.1 51.9h-62.3c-3.8 0-6.9-3.1-6.9-6.9 0-3.8 3.1-6.9 6.9-6.9h62.3c3.8 0 6.9 3.1 6.9 6.9.1 3.8-3 6.9-6.9 6.9z" opacity="1" data-original="#003870" class=""></path><path fill="#ffffff" d="M235.2 446.3h41.5c9.6 0 17.3 7.7 17.3 17.3 0 9.6-7.7 17.3-17.3 17.3h-41.5c-9.6 0-17.3-7.7-17.3-17.3 0-9.6 7.8-17.3 17.3-17.3z" opacity="1" data-original="#36a4ff" class=""></path><path fill="#67308f" d="M276.8 487.8h-41.5c-13.4 0-24.2-10.9-24.2-24.2s10.9-24.2 24.2-24.2h41.5c13.4 0 24.2 10.9 24.2 24.2s-10.9 24.2-24.2 24.2zm-41.6-34.6c-5.7 0-10.4 4.7-10.4 10.4s4.7 10.4 10.4 10.4h41.5c5.7 0 10.4-4.7 10.4-10.4s-4.7-10.4-10.4-10.4z" opacity="1" data-original="#003870" class=""></path><path fill="#ffffff" d="M207.6 141.8c0 11.5-9.3 20.8-20.8 20.8s-20.8-9.3-20.8-20.8 9.3-20.8 20.8-20.8 20.8 9.4 20.8 20.8zm48.4-20.7c-11.5 0-20.8 9.3-20.8 20.8s9.3 20.8 20.8 20.8 20.8-9.3 20.8-20.8-9.3-20.8-20.8-20.8zm69.2 0c-11.5 0-20.8 9.3-20.8 20.8s9.3 20.8 20.8 20.8 20.8-9.3 20.8-20.8-9.3-20.8-20.8-20.8zm-138.4 69.2c-11.5 0-20.8 9.3-20.8 20.8s9.3 20.8 20.8 20.8 20.8-9.3 20.8-20.8-9.3-20.8-20.8-20.8zm69.2 0c-11.5 0-20.8 9.3-20.8 20.8s9.3 20.8 20.8 20.8 20.8-9.3 20.8-20.8-9.3-20.8-20.8-20.8zm69.2 0c-11.5 0-20.8 9.3-20.8 20.8s9.3 20.8 20.8 20.8S346 222.5 346 211s-9.3-20.7-20.8-20.7zm-138.4 69.2c-11.5 0-20.8 9.3-20.8 20.8s9.3 20.8 20.8 20.8 20.8-9.3 20.8-20.8-9.3-20.8-20.8-20.8zm69.2 0c-11.5 0-20.8 9.3-20.8 20.8S244.5 301 256 301s20.8-9.3 20.8-20.8-9.3-20.7-20.8-20.7zm0 69.2c-11.5 0-20.8 9.3-20.8 20.8s9.3 20.8 20.8 20.8 20.8-9.3 20.8-20.8-9.3-20.8-20.8-20.8zm69.2-69.2c-11.5 0-20.8 9.3-20.8 20.8s9.3 20.8 20.8 20.8 20.8-9.3 20.8-20.8-9.3-20.8-20.8-20.8z" opacity="1" data-original="#ebfcff" class=""></path><path fill="#67308f" d="M256 377.1c-15.3 0-27.7-12.4-27.7-27.7s12.4-27.7 27.7-27.7 27.7 12.4 27.7 27.7-12.4 27.7-27.7 27.7zm0-41.5c-7.6 0-13.8 6.2-13.8 13.8s6.2 13.8 13.8 13.8 13.8-6.2 13.8-13.8-6.2-13.8-13.8-13.8zm69.2-27.7c-15.3 0-27.7-12.4-27.7-27.7s12.4-27.7 27.7-27.7 27.7 12.4 27.7 27.7-12.4 27.7-27.7 27.7zm0-41.5c-7.6 0-13.8 6.2-13.8 13.8s6.2 13.8 13.8 13.8 13.8-6.2 13.8-13.8-6.2-13.8-13.8-13.8zM256 307.9c-15.3 0-27.7-12.4-27.7-27.7s12.4-27.7 27.7-27.7 27.7 12.4 27.7 27.7-12.4 27.7-27.7 27.7zm0-41.5c-7.6 0-13.8 6.2-13.8 13.8S248.4 294 256 294s13.8-6.2 13.8-13.8-6.2-13.8-13.8-13.8zm-69.2 41.5c-15.3 0-27.7-12.4-27.7-27.7s12.4-27.7 27.7-27.7 27.7 12.4 27.7 27.7-12.4 27.7-27.7 27.7zm0-41.5c-7.6 0-13.8 6.2-13.8 13.8s6.2 13.8 13.8 13.8 13.8-6.2 13.8-13.8-6.2-13.8-13.8-13.8zm138.4-27.7c-15.3 0-27.7-12.4-27.7-27.7s12.4-27.7 27.7-27.7 27.7 12.4 27.7 27.7-12.4 27.7-27.7 27.7zm0-41.5c-7.6 0-13.8 6.2-13.8 13.8s6.2 13.8 13.8 13.8S339 218.7 339 211s-6.2-13.8-13.8-13.8zM256 238.7c-15.3 0-27.7-12.4-27.7-27.7s12.4-27.7 27.7-27.7 27.7 12.4 27.7 27.7-12.4 27.7-27.7 27.7zm0-41.5c-7.6 0-13.8 6.2-13.8 13.8s6.2 13.8 13.8 13.8 13.8-6.2 13.8-13.8-6.2-13.8-13.8-13.8zm-69.2 41.5c-15.3 0-27.7-12.4-27.7-27.7s12.4-27.7 27.7-27.7 27.7 12.4 27.7 27.7-12.4 27.7-27.7 27.7zm0-41.5c-7.6 0-13.8 6.2-13.8 13.8s6.2 13.8 13.8 13.8 13.8-6.2 13.8-13.8-6.2-13.8-13.8-13.8zm138.4-27.7c-15.3 0-27.7-12.4-27.7-27.7s12.4-27.7 27.7-27.7 27.7 12.4 27.7 27.7-12.4 27.7-27.7 27.7zm0-41.5c-7.6 0-13.8 6.2-13.8 13.8s6.2 13.8 13.8 13.8 13.8-6.2 13.8-13.8-6.2-13.8-13.8-13.8zM256 169.5c-15.3 0-27.7-12.4-27.7-27.7s12.4-27.7 27.7-27.7 27.7 12.4 27.7 27.7-12.4 27.7-27.7 27.7zm0-41.5c-7.6 0-13.8 6.2-13.8 13.8s6.2 13.8 13.8 13.8 13.8-6.2 13.8-13.8S263.6 128 256 128zm-69.2 41.5c-15.3 0-27.7-12.4-27.7-27.7s12.4-27.7 27.7-27.7 27.7 12.4 27.7 27.7-12.4 27.7-27.7 27.7zm0-41.5c-7.6 0-13.8 6.2-13.8 13.8s6.2 13.8 13.8 13.8 13.8-6.2 13.8-13.8-6.2-13.8-13.8-13.8z" opacity="1" data-original="#003870" class=""></path></g></svg>