<svg xmlns="http://www.w3.org/2000/svg" version="1.1" xmlns:xlink="http://www.w3.org/1999/xlink" width="512" height="512" x="0" y="0" viewBox="0 0 32 32" style="enable-background:new 0 0 512 512" xml:space="preserve" class=""><g><circle cx="14.627" cy="9.699" r="7.699" fill="#67308f" opacity="1" data-original="#000000" class=""></circle><path d="M22.623 22.176 18.27 26.52a.67.67 0 0 0-.2.39l-.38 2.24c-.09.49.34.92.84.84l2.23-.38c.15-.02.29-.09.4-.2l4.353-4.344zM27.55 20.13c-.8-.8-2.09-.8-2.89 0l-.766.771 2.89 2.89.766-.771c.79-.8.79-2.09 0-2.89zM14.627 19.197a9.429 9.429 0 0 1-4.869-1.358c-3.428 1.137-5.904 4.364-5.904 8.173v1.231c0 .918.644 1.709 1.545 1.881 2.573.493 5.689.876 9.228.876.465 0 .901-.023 1.351-.035a2.503 2.503 0 0 1-.058-1.143l.375-2.212c.06-.47.305-.964.698-1.359l4.977-4.967.619-.623a8.66 8.66 0 0 0-3.1-1.817 9.431 9.431 0 0 1-4.862 1.353z" fill="#67308f" opacity="1" data-original="#000000" class=""></path></g></svg>