<svg xmlns="http://www.w3.org/2000/svg" version="1.1" xmlns:xlink="http://www.w3.org/1999/xlink" width="512" height="512" x="0" y="0" viewBox="0 0 24 24" style="enable-background:new 0 0 512 512" xml:space="preserve" class=""><g><path d="m17.625 14.174 2.642 1.576a1.5 1.5 0 0 1 .7 1.583 4.526 4.526 0 0 1-5.6 3.508A17.44 17.44 0 0 1 3.159 8.635a4.526 4.526 0 0 1 3.507-5.6h.016a1.5 1.5 0 0 1 1.587.707l1.564 2.64A2.051 2.051 0 0 1 9.2 9.128l-1.657 1.105a11.6 11.6 0 0 0 6.211 6.226l1.115-1.665a2.052 2.052 0 0 1 2.756-.62zM20.53 3.47a.749.749 0 0 0-1.06 0l-3.72 3.719V5.667a.75.75 0 0 0-1.5 0V9a.753.753 0 0 0 .75.75h3.333a.75.75 0 0 0 0-1.5h-1.522l3.719-3.72a.749.749 0 0 0 0-1.06z" fill="#008000" opacity="1" data-original="#000000"></path></g></svg>