<svg xmlns="http://www.w3.org/2000/svg" version="1.1" xmlns:xlink="http://www.w3.org/1999/xlink" width="512" height="512" x="0" y="0" viewBox="0 0 512 512" style="enable-background:new 0 0 512 512" xml:space="preserve" class=""><g><path fill-rule="evenodd" d="m302.528 178.814 40.531-40.568-40.531-40.567A21.685 21.685 0 1 1 333.182 67l40.583 40.567L414.347 67A21.685 21.685 0 0 1 445 97.679l-40.583 40.567L445 178.814a21.685 21.685 0 1 1-30.655 30.68l-40.582-40.563-40.583 40.563a21.685 21.685 0 0 1-30.654-30.68zM120.345 0h-2.19a35.907 35.907 0 0 0-12.149 2.5l-1.075.425c-16.61 6.568-65.4 24.609-77.489 36.7C9.464 57.593 1.207 79.939.1 105.2c-1.232 28.227 6.724 57.616 17.22 83.576 26.614 65.819 76.518 129.635 126.39 179.49s113.7 99.788 179.534 126.4C347.576 504.5 374.626 512 401.042 512q2.88 0 5.76-.122c25.255-1.1 47.617-9.342 65.584-27.327 12.189-12.2 30.1-60.722 36.655-77.434l.116-.3.445-1.043a35.449 35.449 0 0 0-15.52-43.73L406.52 311.5a35.749 35.749 0 0 0-48.755 13.051c-8.651 15.024-21.793 27.188-39.225 30.751a57.479 57.479 0 0 1-47.365-10.64c-19.462-14.622-38.026-31.577-55.226-48.785-17.151-17.158-34.041-35.665-48.623-55.068a57.34 57.34 0 0 1-10.607-47.394c3.587-17.378 15.736-30.5 30.71-39.153a35.756 35.756 0 0 0 13.043-48.8L149.962 17.9A35.379 35.379 0 0 0 120.345 0z" fill="#ed1c24" opacity="1" data-original="#000000" class=""></path></g></svg>