<svg id="Layer_1" height="512" viewBox="0 0 512 512" width="512" xmlns="http://www.w3.org/2000/svg" data-name="Layer 1"><path d="m376.3 345.276a40.167 40.167 0 0 1 50.314 1.643l58.842 50.1a39.82 39.82 0 0 1 12.31 42.951l-3.836 12.08a41.226 41.226 0 0 1 -5.334 11.112 856.138 856.138 0 0 1 -124.596-108.755zm-316.413-327.231 12.093-3.865a41.694 41.694 0 0 1 12.494-1.932 39.74 39.74 0 0 1 30.457 14.252l50.116 58.847a40.148 40.148 0 0 1 1.638 50.3l-9.155 12.32a855.253 855.253 0 0 1 -108.707-124.607 40.683 40.683 0 0 1 11.064-5.315zm-23.331 19.278c-28.795 53.242-40.694 90.154-35.351 109.817a5.028 5.028 0 0 1 .121.58c26.66 156.537 206.407 336.265 362.886 362.886l.58.145c19.664 5.363 56.624-6.571 109.856-35.365a44.3 44.3 0 0 0 5.295-3.334 865.3 865.3 0 0 1 -125.872-110.252l-5.754 4.3a51.944 51.944 0 0 1 -61.823.822 450.911 450.911 0 0 1 -141.434-141.465 51.906 51.906 0 0 1 .8-61.842l4.29-5.749a863.049 863.049 0 0 1 -110.236-125.858 45.317 45.317 0 0 0 -3.358 5.315zm250.844 1.159c51.3-51.309 134.786-51.309 186.1 0a131.537 131.537 0 0 1 0 186.057 131.576 131.576 0 0 1 -186.1-186.057zm144.656 50.1-42.917 42.951 42.917 42.9a6.157 6.157 0 0 1 0 8.7 6.175 6.175 0 0 1 -8.691 0l-42.918-42.951-42.922 42.951a6.164 6.164 0 0 1 -8.682 0 6.141 6.141 0 0 1 0-8.7l42.918-42.9-42.92-42.949a6.144 6.144 0 1 1 8.682-8.7l42.922 42.951 42.918-42.951a6.148 6.148 0 0 1 8.691 8.7z" fill="#ed1c24" fill-rule="evenodd"/></svg>