<svg xmlns="http://www.w3.org/2000/svg" version="1.1" xmlns:xlink="http://www.w3.org/1999/xlink" width="512" height="512" x="0" y="0" viewBox="0 0 512 512" style="enable-background:new 0 0 512 512" xml:space="preserve" class=""><g><g fill-rule="evenodd" clip-rule="evenodd"><circle cx="381.5" cy="130.5" r="112.5" fill="#ed1c24" opacity="1" data-original="#fe646f" class=""></circle><path fill="#ed1c24" d="M371.499 18.439c57.448 5.06 102.5 53.299 102.5 112.061s-45.052 107.001-102.5 112.062c3.295.29 6.63.438 10 .438 62.132 0 112.5-50.368 112.5-112.5C494 68.368 443.632 18 381.5 18c-3.371 0-6.706.149-10.001.439z" opacity="1" data-original="#fd4755" class=""></path><path fill="#ffffff" d="m353.773 130.5-26.391-26.391c-7.634-7.634-7.634-20.092 0-27.726s20.092-7.634 27.726 0l26.391 26.391 26.391-26.391c7.634-7.634 20.092-7.634 27.726 0s7.634 20.092 0 27.726l-26.39 26.391 26.391 26.391c7.634 7.634 7.634 20.092 0 27.726s-20.092 7.634-27.726 0l-26.391-26.39-26.391 26.391c-7.634 7.634-20.092 7.634-27.726 0s-7.634-20.092 0-27.726z" opacity="1" data-original="#eceff1" class=""></path><path fill="#ed1c24" d="M211.83 300.17c-22.025-21.985-41.547-46.321-58.14-72.559-6.059-9.583-5.995-21.096.166-30.61l23.68-36.56c5.052-7.804 6.016-16.708 2.75-25.41L139.554 26.472c-6.378-17.001-26.566-23.728-41.869-13.951L40.86 48.827c-25.933 16.57-37.973 46.356-30.829 76.291 21.987 92.136 69.943 175.052 136.224 240.626 65.575 66.282 148.49 114.238 240.627 136.224 29.934 7.144 59.721-4.896 76.291-30.829l36.306-56.825c9.778-15.303 3.05-35.491-13.951-41.869L376.97 331.714c-8.703-3.266-17.606-2.302-25.41 2.75L315 358.144c-9.514 6.161-21.027 6.225-30.61.166-26.239-16.594-50.575-36.115-72.56-58.14z" opacity="1" data-original="#8ac9fe" class=""></path><path fill="#ed1c24" d="M420.293 468.558c-92.136-21.987-175.052-69.943-240.627-136.224-66.282-65.575-114.238-148.49-136.224-240.627-3.993-16.731-1.993-33.416 5.076-47.773l-7.658 4.893c-25.933 16.57-37.973 46.356-30.829 76.291 21.987 92.136 69.943 175.052 136.224 240.626 65.575 66.282 148.49 114.238 240.627 136.224 29.934 7.144 59.721-4.896 76.291-30.829l4.893-7.658c-14.357 7.07-31.042 9.07-47.773 5.077z" opacity="1" data-original="#60b7ff" class=""></path></g></g></svg>