<svg xmlns="http://www.w3.org/2000/svg" version="1.1" xmlns:xlink="http://www.w3.org/1999/xlink" width="512" height="512" x="0" y="0" viewBox="0 0 512 512" style="enable-background:new 0 0 512 512" xml:space="preserve" class=""><g><g fill-rule="evenodd" clip-rule="evenodd"><path fill="#8eb5d3" d="M391.506 7.994c62.131 0 112.5 50.369 112.5 112.5s-50.369 112.5-112.5 112.5-112.5-50.369-112.5-112.5 50.37-112.5 112.5-112.5zm-66.029 154.194L433.201 54.465c-12.478-7.9-26.866-12.056-41.694-12.056-43.126 0-78.085 34.959-78.085 78.085-.001 14.827 4.156 29.216 12.055 41.694zm132.059-83.389L349.812 186.523c12.478 7.9 26.867 12.055 41.694 12.055 43.126 0 78.085-34.959 78.085-78.085 0-14.827-4.155-29.216-12.055-41.694z" opacity="1" data-original="#fe646f"></path><path fill="#8eb5d3" d="M211.837 300.163c-22.025-21.985-41.547-46.321-58.14-72.559-6.059-9.583-5.995-21.096.166-30.61l23.68-36.56c5.052-7.804 6.016-16.708 2.75-25.41L139.56 26.466c-6.378-17.001-26.566-23.728-41.869-13.951L40.866 48.821c-25.933 16.57-37.973 46.356-30.829 76.291 21.987 92.136 69.943 175.052 136.224 240.626 65.575 66.282 148.49 114.238 240.627 136.224 29.934 7.144 59.721-4.896 76.291-30.829l36.306-56.825c9.778-15.303 3.05-35.491-13.951-41.869l-108.558-40.732c-8.703-3.266-17.606-2.302-25.41 2.75l-36.56 23.68c-9.514 6.161-21.027 6.225-30.61.166-26.239-16.593-50.575-36.114-72.559-58.14z" opacity="1" data-original="#8ac9fe" class=""></path><path fill="#8eb5d3" d="M420.299 468.552c-92.136-21.987-175.052-69.943-240.627-136.224C113.391 266.753 65.435 183.837 43.448 91.701c-3.993-16.731-1.993-33.416 5.076-47.773l-7.658 4.893c-25.933 16.57-37.973 46.356-30.829 76.291 21.987 92.136 69.943 175.052 136.224 240.626 65.575 66.282 148.49 114.238 240.627 136.224 29.934 7.144 59.721-4.896 76.291-30.829l4.893-7.658c-14.357 7.07-31.042 9.07-47.773 5.077z" opacity="1" data-original="#60b7ff" class=""></path><path d="M391.515 15.999c57.604 0 104.499 46.881 104.499 104.499s-46.895 104.499-104.499 104.499c-57.651 0-104.499-46.881-104.499-104.499 0-57.619 46.847-104.499 104.499-104.499zm0 225.001c66.427 0 120.493-54.052 120.493-120.502C512.008 54.057 457.942.001 391.515.001c-66.474 0-120.539 54.056-120.539 120.497C270.975 186.948 325.041 241 391.515 241zm0-190.58c-38.638 0-70.106 31.439-70.106 70.078 0 9.87 2.076 19.532 5.992 28.429l92.516-92.507c-8.87-3.953-18.542-6-28.402-6zm-66.946 119.728c.33.033.613.052.896.052 2.123 0 4.152-.84 5.661-2.349L438.834 60.129a7.888 7.888 0 0 0 2.312-6.539c-.283-2.42-1.604-4.581-3.68-5.883-13.729-8.7-29.628-13.29-45.951-13.29-47.508 0-86.1 38.61-86.1 86.081 0 16.342 4.576 32.232 13.304 45.98 1.274 2.052 3.445 3.401 5.85 3.67zm131.014-78.08-92.516 92.511a70.03 70.03 0 0 0 28.448 6.011c38.639 0 70.059-31.439 70.059-70.092 0-9.87-2.029-19.527-5.991-28.43zm-113.747 95.337a8.112 8.112 0 0 0 3.68 5.883c13.729 8.699 29.628 13.299 45.998 13.299 47.461 0 86.052-38.62 86.052-86.09 0-16.338-4.576-32.232-13.257-45.97-1.321-2.047-3.491-3.411-5.897-3.67a8.064 8.064 0 0 0-6.558 2.293L344.148 180.871a8.19 8.19 0 0 0-2.312 6.534zM492.759 410.01c3.35-5.251 4.152-11.611 2.217-17.451-1.981-5.831-6.416-10.431-12.266-12.62L374.153 339.21c-6.275-2.373-12.597-1.68-18.258 1.968l-36.563 23.683c-12.03 7.808-27.08 7.888-39.205.208-26.656-16.838-51.518-36.78-73.975-59.241-22.457-22.428-42.366-47.301-59.208-73.937-7.69-12.148-7.596-27.179.189-39.243l23.683-36.558c3.633-5.642 4.34-11.95 1.981-18.253L132.036 29.279c-2.17-5.831-6.747-10.289-12.597-12.228a19.998 19.998 0 0 0-6.416-1.042c-3.821 0-7.643 1.099-11.039 3.25L45.182 55.572C22.206 70.22 11.497 96.801 17.819 123.258c21.277 89.199 67.653 171.081 134.08 236.8 65.766 66.483 147.62 112.84 236.833 134.132 26.467 6.317 53.028-4.421 67.7-27.363zm-4.435-45.05-108.557-40.729c-11.039-4.161-22.645-2.911-32.552 3.52l-36.563 23.679c-6.841 4.439-15.097 4.486-21.985.118-25.617-16.211-49.584-35.398-71.191-57.029v-.009c-21.607-21.594-40.809-45.531-57.038-71.173-4.34-6.907-4.293-15.13.141-21.985l23.684-36.563c6.416-9.931 7.643-21.499 3.538-32.572L147.039 23.656c-3.869-10.37-12.125-18.305-22.551-21.787S102.739-.193 93.398 5.78l-56.85 36.308C7.77 60.459-5.676 93.776 2.25 126.975c21.985 92.101 69.824 176.634 138.326 244.391 67.795 68.554 152.337 116.402 244.429 138.382a81.155 81.155 0 0 0 18.871 2.241c26.467 0 51.141-13.262 66.049-36.539l36.28-56.83c5.992-9.332 7.407-20.683 3.916-31.109-3.445-10.441-11.418-18.664-21.797-22.551z" fill="#8eb5d3" opacity="1" data-original="#000000" class=""></path></g></g></svg>