<svg width="12" height="12" viewBox="0 0 12 12" fill="none" xmlns="http://www.w3.org/2000/svg">
<path d="M11.0833 8.13888C10.3222 8.13888 9.58053 8.0066 8.87719 7.74205C8.53997 7.59166 8.1389 7.67499 7.8861 7.92778L6.51663 9.01666C4.98053 8.14999 4.0111 7.18055 3.15553 5.65555L4.22219 4.30721C4.47497 4.05443 4.5583 3.65332 4.41663 3.32221C4.15108 2.61887 4.0188 1.87732 4.0188 1.11609C4.0188 0.584423 3.5844 0.150024 3.05274 0.150024H1.13884C0.607173 0.150024 0.172729 0.584423 0.172729 1.11609C0.172729 6.81581 4.96719 11.6103 10.6669 11.6103C11.1985 11.6103 11.633 11.1758 11.633 10.6442V8.73052C11.6333 8.19885 11.1989 7.76443 10.6672 7.76443L11.0833 8.13888Z" fill="#4CAF50"/>
</svg>
