<svg xmlns="http://www.w3.org/2000/svg" version="1.1" xmlns:xlink="http://www.w3.org/1999/xlink" width="512" height="512" x="0" y="0" viewBox="0 0 512 512" style="enable-background:new 0 0 512 512" xml:space="preserve" fill-rule="evenodd" class=""><g><path fill="#e41b23" d="M260 8c134 0 242 109 242 242 0 134-109 242-242 242-134 0-242-109-242-242C18 116 127 8 260 8zM96 253v38s2 10 14 10h52s13-2 16-15c4-13 13-39 37-39h88c24 0 33 26 37 39s16 15 16 15h52c12 0 14-10 14-10v-38c-17-57-151-55-164-54-13 0-147-3-164 54z" opacity="1" data-original="#2b2a29" class=""></path></g></svg>