<svg xmlns="http://www.w3.org/2000/svg" version="1.1" xmlns:xlink="http://www.w3.org/1999/xlink" width="512" height="512" x="0" y="0" viewBox="0 0 512 512" style="enable-background:new 0 0 512 512" xml:space="preserve" class=""><g><g data-name="ARROW 48"><path d="M467.3 504.94a24 24 0 0 0 0-33.94l-128-128a24 24 0 0 0-33.94 33.94l128 128a24 24 0 0 0 33.94 0zM44.7 504.93a24 24 0 0 0 34 0l194.39-194.44a24 24 0 0 0 7-17l.11-211.8 47.43 47.43A24 24 0 0 0 361.6 95.2l-87.93-88a24.66 24.66 0 0 0-34.89 0L150.4 95.66a24 24 0 0 0-.33 33.61c9.33 9.7 25.14 9.47 34.65-.05l47.51-47.5-.11 201.86L44.7 471a24 24 0 0 0 0 33.94z" fill="#67308f" opacity="1" data-original="#000000"></path></g></g></svg>