<svg xmlns="http://www.w3.org/2000/svg" version="1.1" xmlns:xlink="http://www.w3.org/1999/xlink" width="512" height="512" x="0" y="0" viewBox="0 0 24 24" style="enable-background:new 0 0 512 512" xml:space="preserve"><g><path d="M23.25 15a.75.75 0 0 1-.75-.75A5.256 5.256 0 0 0 17.25 9H10v3.25c0 .66-.794.994-1.268.542l-5.5-5.25a.749.749 0 0 1 0-1.084l5.5-5.25C9.208.754 10 1.092 10 1.75V5h6.25C20.523 5 24 8.477 24 12.75v1.5a.75.75 0 0 1-.75.75z" fill="#ffffff" opacity="1" data-original="#000000"></path><path d="M14 22.25V19H7.75C3.477 19 0 15.523 0 11.25v-1.5a.75.75 0 0 1 1.5 0A5.256 5.256 0 0 0 6.75 15H14v-3.25a.75.75 0 0 1 1.268-.542l5.5 5.25a.749.749 0 0 1 0 1.084l-5.5 5.25c-.477.454-1.268.116-1.268-.542z" fill="#ffffff" opacity="1" data-original="#000000"></path></g></svg>