<svg xmlns="http://www.w3.org/2000/svg" version="1.1" xmlns:xlink="http://www.w3.org/1999/xlink" width="512" height="512" x="0" y="0" viewBox="0 0 24 24" style="enable-background:new 0 0 512 512" xml:space="preserve"><g><path d="m23.772 10.462-8.5-8.25a.752.752 0 0 0-.814-.153.752.752 0 0 0-.458.691v4.252C6.257 7.136 0 13.476 0 21.25c0 .342.241.622.572.708a.715.715 0 0 0 .177.022.788.788 0 0 0 .678-.404A12.754 12.754 0 0 1 12.582 15H14v4.25c0 .301.181.573.458.691a.752.752 0 0 0 .814-.153l8.5-8.25a.747.747 0 0 0 0-1.076z" fill="#ffffff" opacity="1" data-original="#000000"></path></g></svg>