<svg xmlns="http://www.w3.org/2000/svg" version="1.1" xmlns:xlink="http://www.w3.org/1999/xlink" width="512" height="512" x="0" y="0" viewBox="0 0 32 32" style="enable-background:new 0 0 512 512" xml:space="preserve" fill-rule="evenodd" class=""><g><path d="M22.406 5.853a12 12 0 0 1 0 20.294 1 1 0 1 0 1.07 1.689C27.396 25.354 30 20.979 30 16s-2.604-9.354-6.524-11.836a1 1 0 1 0-1.07 1.689zM17 7a1 1 0 0 0-1.651-.759L8.63 12H6a1 1 0 0 0-1 1v6a1 1 0 0 0 1 1h2.63l6.719 5.759A1.002 1.002 0 0 0 17 25zm1.99 16.968-.004.154.019.15.058.188.08.15.014.021a.989.989 0 0 0 .156.18l.153.115.147.073.17.051.15.019h.109c.135-.008.266-.042.387-.102C23.729 23.333 26 19.929 26 16s-2.271-7.333-5.571-8.967a1 1 0 0 0-.888 1.792C22.182 10.133 24 12.856 24 16s-1.818 5.867-4.459 7.175a1 1 0 0 0-.551.793zm-.514-10.58C19.385 13.904 20 14.881 20 16s-.615 2.096-1.524 2.612a1 1 0 0 0 .987 1.739 4.998 4.998 0 0 0 0-8.702 1 1 0 1 0-.987 1.739z" fill="#67308f" opacity="1" data-original="#000000"></path></g></svg>